<svg width="25" height="25" viewBox="0 0 25 25" fill="none" xmlns="http://www.w3.org/2000/svg">
<path fill-rule="evenodd" clip-rule="evenodd" d="M12.0795 7.13691C12.2045 7.26194 12.2747 7.43148 12.2747 7.60827C12.2747 7.78505 12.2045 7.9546 12.0795 8.07963L8.55084 11.6085H17.6082C17.785 11.6085 17.9545 11.6787 18.0796 11.8037C18.2046 11.9288 18.2748 12.0983 18.2748 12.2752C18.2748 12.452 18.2046 12.6216 18.0796 12.7466C17.9545 12.8716 17.785 12.9419 17.6082 12.9419H8.55084L12.0795 16.4707C12.2009 16.5964 12.2681 16.7649 12.2666 16.9397C12.2651 17.1145 12.195 17.2817 12.0714 17.4053C11.9478 17.5289 11.7806 17.599 11.6058 17.6005C11.431 17.6021 11.2626 17.5349 11.1368 17.4134L6.47017 12.7465C6.34519 12.6215 6.27498 12.452 6.27498 12.2752C6.27498 12.0984 6.34519 11.9288 6.47017 11.8038L11.1368 7.13691C11.2619 7.01193 11.4314 6.94171 11.6082 6.94171C11.7849 6.94171 11.9545 7.01193 12.0795 7.13691V7.13691Z" fill="#9F0023"/>
</svg>
